<?xml version="1.0" encoding="UTF-8"?>
<svg version="1.1" viewBox="0 0 4000 4000" width="2280" height="2280" xmlns="http://www.w3.org/2000/svg">
<path transform="translate(370,909)" d="m0 0h122l15 3 14 7 13 10 7 9 8 16 2 5v121l-2 13-4 13-7 13-9 10-10 8-14 6-16 4-11 1h-106l-16-4-10-5-10-8-7-7-8-13-5-11-4-16-6-52-1-11v-16l9-45 5-13 10-16 9-8 11-8 13-5zm69 106-9 7-10 2-2 4-1 19v17l2 1h20l2-1v-49z" fill="#5A7185"/>
<path transform="translate(874,937)" d="m0 0h20l15 3 13 5 14 10 7 6 12 16 3 10h2l6-11 11-15 7-6 12-9 9-4 17-4h22l15 3 11 4 14 9 8 7 10 13 6 12 3 12 1 10v15l-1 8-1 1h-111l6 8 8 8 14 7h20l8-3 16-12 6 1 12 5 10 6 6 4-2 4h-2l-2 4-6 7-10 8-11 7-16 5-8 1h-25l-12-2-13-5-10-7-10-8-8-10-8-13-6-16-7 1h-89l-10-1 4 6 7 8 10 6 11 4h15l9-3 6-4 10-8 13 5 18 11-1 4-3 1-2 4-7 8-9 7-12 7-15 4-12 1h-12l-14-2-12-4-10-6-11-8-8-9-10-15-5-14-1-5-1-16 2-20 4-12 9-14 6-8 10-8 10-7 15-5zm153 37-10 3-8 6-10 11-2 5 1 1 13 1h60l1-3-6-9-7-8-6-4-12-3zm-143 0-13 2-10 6-7 8-5 7v2l8 1h64l-4-8-7-9-9-6-6-2z" fill="#ADD7E8"/>
<path transform="translate(654,936)" d="m0 0h12l15 3 12 5 11 8 7-7 11-5 10-3h22l12 3 9 4 10 7 8 9 8 16 2 6 1 7v101l-1 1h-36l-1-1-1-96-4-9-5-6-7-3h-12l-6 3-4 5-2 5-1 6-1 95-3 1h-33l-1-1-1-95-3-9-5-6-7-4-4-1-13 1-6 4-5 8-2 7-1 95-3 1h-33l-2-3v-64l1-40 4-12 6-12 9-10 9-7 13-5z" fill="#FEFEFE"/>
<path transform="translate(1529,875)" d="m0 0h26l8 4 4 5 1 6 1 57 10-5 21-5h24l15 3 13 5 9 6 10 8 6 7 8 13 4 10 2 9v30l-3 13-8 16-11 14-12 9-8 5-13 5-12 2h-24l-16-3-16-8v8l-1 1-20 1h-17l-1-1-1-154v-60zm69 99-8 3-9 7-8 9-4 11-1 5v9l3 12 4 8 4 5 15 10 10 3 13 1 12-3 10-6 7-7 6-10 3-10v-8l-3-12-5-9-9-10-8-5-9-3z" fill="#FDFDFD"/>
<path transform="translate(1202,875)" d="m0 0h22l8 3 6 7 1 2v59l12-5 10-3 7-1h16l16 3 11 4 10 6 12 11 7 10 6 15 2 9 1 52v43l-20 1h-17l-1-1-1-88-4-11-7-7-11-7-8-2h-12l-8 2-9 6-5 5-4 5-2 6-1 14v76l-4 2h-33l-2-6 1-209z" fill="#FEFEFE"/>
<path transform="translate(874,937)" d="m0 0h20l15 3 13 5 14 10 7 6 12 16 3 10h2l6-11 11-15 7-6 12-9 9-4 17-4h22l15 3 11 4 14 9 8 7 10 13 6 12 2 9-2-1v-2l-6-2-18 2h-9l-2 1-2-1-1 3-4-5-7-8-6-4-12-3h-14l-10 3-8 6-9 10-2 5-1 2-13 3-26 4-25 2h-16l-14 1-10-1-20 5-5 2-16 2h-16l-21 6-4 2-2 2-1-16 2-20 4-12 9-14 6-8 10-8 10-7 15-5zm10 37-13 2-10 6-7 8-5 7v2l8 1h64l-4-8-7-9-9-6-6-2z" fill="#FDFDFD"/>
<path transform="translate(1361,939)" d="m0 0h35l1 1 1 76 2 13 4 8 8 10 10 6 10 3h16l8-3 11-8 6-8 2-6 1-7 1-84 1-1h31l5 1 1 2v73l-1 20-4 15-6 11-11 12-11 9-14 7-17 4-6 1h-17l-18-4-16-8-11-9-7-7-8-13-7-19-2-14v-52l1-28z" fill="#9BFEFD"/>
<path transform="translate(429,922)" d="m0 0 19 1 15 3 13 5 16 10 10 7 14 14 9 14 8 18 4 15 1 17-2 19-3 9-4 2-12 1-8 3h-3l-1-7-1-35-3-12-6-12-5-6-11-7-9-3-11-1-13 4-11 8-4 3-5-2-1-3-5-1-8-5-9-3h-15l-10 4-9 7-7 8-4 10-2 18-2 10-3 2-11-1-11 3h-3l-1-8v-16l3-20 7-16 9-14 9-10 10-9 10-7 14-8 13-5 16-3z" fill="#9BFEFD"/>
<path transform="translate(1529,960)" d="m0 0 3 1 2 4 7-1 32 2 9 1 11 4v2h2l-1 3-11 7-7 7-5 10-2 9v9l3 12 4 8 5 5 11 8 7 3 11 2 13-1 10-4 7-5h2v2l3-1 10 1 13 1 5 3 2 5h3l-2 5-8 10-11 8-8 5-13 5-12 2h-24l-16-3-16-8v8l-1 1-20 1h-17l-1-1z" fill="#ADD7E8"/>
<path transform="translate(1126,903)" d="m0 0h34l1 1 1 34 22 1 1 1v35l-23 1 1 4v53l2 8 9 8 11 5v37h-24l-13-4-6-5-7-8-5-8-4-16-1-66v-80z" fill="#FEFEFE"/>
<path transform="translate(1478,939)" d="m0 0h31l5 1 1 2v73l-1 20-4 15-6 11-11 12-11 9-14 7-14 3-7-2-6-9 5-3v-3-2l2-2 4-3 3-3v-2l2-2 4-5 5-2v-6l-2-1 6-5 4-8 2-10 1-84z" fill="#ADD7E8"/>
<path transform="translate(874,937)" d="m0 0h20l15 3 13 5 14 10 7 6 12 16 2 5-1 3-3-1-15-2h-14l-8 4h-2l-1 2-3-3v-2l-12-6-12-2-12 1-12 6h-3l-10 3-24 4h-7l-6 7-2 2 1-9 5-12 10-14 5-5 13-11 10-5 14-4z" fill="#FDFDFD"/>
<path transform="translate(997,976)" d="m0 0h15v2h2v2l-8 7-8 10-1 4-13 3-26 4-25 2h-16l-14 1-10-1-20 5-5 2-16 2h-16l-21 6-4 2-2 2-1-16 1-14 6-8 3-3h8l23-4 10-3v4l-9 12-1 2h71l-6-10v-3l10-5h15l16 2 3 4h2l3-3 9-3 13-2z" fill="#DEF9FB"/>
<path transform="translate(1148 1e3)" d="m0 0 4 1 3 2v2l7 1 1 22 2 8 9 8 11 5v37h-24l-13-4-6-5-7-8-5-8-4-16v-40l6-1 3-2 12-1z" fill="#ACD6E7"/>
<path transform="translate(1224 1e3)" d="m0 0 8 2 6 5 1 3v76l-4 2h-33l-2-6 1-75h3l7-1 2-4z" fill="#ACD6E7"/>
<path transform="translate(782,1022)" d="m0 0h17l4 1 1 12v55l-1 1h-36l-1-1v-50l1-7h3l1-4 5-5z" fill="#ADD7E8"/>
<path transform="translate(1529,875)" d="m0 0h26l8 4 4 5 1 6v48l-2-4-3 3-5 1h-28l-2-2v-60z" fill="#FDFDFD"/>
<path transform="translate(1566,933)" d="m0 0h1l2 14 8-4 8 1 12 3 10 3 10 5 5 5 5 4 1 8-2 3h-31v-2h-2v-2l-4-1-9-2-7-1-33-2-6 1-3-4-2-2-1-23h35l1-3z" fill="#DEF9FA"/>
<path transform="translate(704,1027)" d="m0 0h7l4 2v2h2l4 7 2 1v51l-3 1h-33l-1-1v-50l6-4 4-6z" fill="#ACD5E6"/>
<path transform="translate(620,1029)" d="m0 0h7l8 7 2 1 2-4v57l-3 1h-33l-2-3v-33l1-14 7-1 1-6h2v-3z" fill="#ADD7E8"/>
<path transform="translate(1325,1031)" d="m0 0 10 2 4 3v3h2l1-4 5-4h1l1 16v43l-20 1h-17l-1-1v-46l2-5 5-1 2-5z" fill="#9BFEFD"/>
<path transform="translate(394 1e3)" d="m0 0h7l7 3 6 7 2 6 1 16h1v12l-1 13-4 4-6 1-11-1-7 1-4-2-1-2-1-13v-34l3-5 4-4z" fill="#9BFDFD"/>
<path transform="translate(457 1e3)" d="m0 0h10l6 4 3 5v36l-1 10-3 4-19 3-7 1-2-4-1-7v-30l1-12 5-6z" fill="#9BFDFD"/>
<path transform="translate(1478,939)" d="m0 0h31l5 1 1 2v31l-2 8-3 2h-7l-18 4-5 6h-3v-53z" fill="#FEFEFE"/>
<path transform="translate(1666,1006)" d="m0 0h10l5 3 6 8 4 2v9l-3 13-8 16-2 1-3-1-4-6-3-1-19-1-7-1-1-3 7-8 5-11 2-15 6-4z" fill="#DEFAFB"/>
<path transform="translate(1340,989)" d="m0 0 7 1 1 5v36l-6 5-1 3h-2l-1-3-7-3-6-1-5 1-2 5-5 2-2 4v-38l6-10 5-3 9-3z" fill="#DEFAFB"/>
<path transform="translate(1361,939)" d="m0 0h35l1 1v38l-6-2-31-1v6h-1v-13l1-28z" fill="#FEFEFE"/>
<path transform="translate(1216,973)" d="m0 0h11l11 1 5 5 1 5 2 1-1 4-4 7-1 3-1 12-9-6-6-1-11 2-4 4-5 1-3-1v-32l3-1 6 1 1-3z" fill="#DEFAFB"/>
<path transform="translate(618,994)" d="m0 0h9l5 4 4 10h3v25l-2 5-3-1-5-6-2-1-15 1v3h-2l-1 6-3 2h-3l-1 13h-1v-31l1-14 5-5 5-8 2-2z" fill="#DEFAFB"/>
<path transform="translate(1137,975)" d="m0 0 14 1 10 2 2 2-1 31-2 1-5-2v-2l-4-2-16 2-7 3-2-1v-30l7-1z" fill="#DEFAFB"/>
<path transform="translate(704,996)" d="m0 0 9 1 2 1 4 10 1 4h3v27l-3-1-3-5v-2h-2l-1-2-9-1-9 3-5 7h-2l-1 2h-2v-27l7-10 5-5z" fill="#DEFAFB"/>
<path transform="translate(779,995)" d="m0 0h19l5 4 1 23v13h-1v-12h-21l-8 3-4 7h-3v7h-1v-37l5-2v-2l4-3z" fill="#DEFAFB"/>
<path transform="translate(1069,1071)" d="m0 0h8l7 1 1 2h2l-1 3-14 9-16 5-8 1h-25l-12-2-6-2v-2l-4-2 2-4h23l12-3 1-1 20-2 5-2z" fill="#5D7488"/>
<path transform="translate(1066,969)" d="m0 0 28 1 4-1 7 10 5 13-1 3-1-3-6-2-18 2h-9l-2 1-2-1-1 3-4-5-7-8-4-4 1-5h2v-2z" fill="#DEFAFB"/>
<path transform="translate(383,1014)" d="m0 0h1l1 20 1 6 20-2h7l2-19h1l1 16h1v12l-1 13-4 4-6 1-11-1-7 1-4-2-1-2-1-13z" fill="#ADD7E8"/>
<path transform="translate(1514,960)" d="m0 0h1v13l-2 8-3 2h-7l-18 4-5 6h-3v-20l5-2 5-6 12-3h11z" fill="#DEFAFB"/>
<path transform="translate(475,1028)" d="m0 0h1v21l-1 10-3 4-19 3-7 1-2-4-1-7v-10l8-1 1-2 10-1 9 1 3-5z" fill="#ADD7E8"/>
<path transform="translate(535,1039)" d="m0 0h1l-1 9-2 6-4 2-12 1-8 3h-3l-1-7v-11l1 4h8l16-2 4-2z" fill="#ADD7E8"/>
<path transform="translate(325,1022)" d="m0 0 1 3 5 1 17 1 5-2 3 1-2 9-3 2-11-1-11 3h-3l-1-8z" fill="#ADD7E8"/>
<path transform="translate(1237,1073)" d="m0 0h1v17l-3 1h-33l-1-1v-5h11l8 1 14-1 1-2h2z" fill="#678194"/>
<path transform="translate(1325,1031)" d="m0 0 10 2 4 3 1 4-20 3-8-1 1-3 5-1 2-5z" fill="#ADD7E8"/>
<path transform="translate(788,1085)" d="m0 0h13l2 1v5h-31l-3-2h4v-3z" fill="#5C7387"/>
<path transform="translate(1360,970)" d="m0 0 28 1 9 3-1 4-5-2-31-1v6h-1v-9z" fill="#DEFAFB"/>
<path transform="translate(914,1085)" d="m0 0 3 1-1 2-12 3h-17v-3l5-1 4 1 6-2h9z" fill="#60798D"/>
<path transform="translate(503,912)" d="m0 0 6 1 12 6 13 10 7 9 3 5-1 2-10-13-12-10-16-8z" fill="#C5E5F0"/>
<path transform="translate(1474,1081)" d="m0 0h7l-4 4-13 5-9 1 1-4 1 2 6-2 7-5z" fill="#9CFCFC"/>
<path transform="translate(1173,1085)" d="m0 0 5 1-1 3 3-1v3h-19v-2h2v-2z" fill="#627B8F"/>
<path transform="translate(503,912)" d="m0 0 6 1 12 6 5 5-4-1-10-6-9-4z" fill="#CAEAF2"/>
<path transform="translate(335,926)" d="m0 0v3l-8 9-4 6-1-2 8-12z" fill="#C4E6F0"/>
<path transform="translate(871,1087)" d="m0 0h3v2l3-1 9 2v1h-12z" fill="#5A7185"/>
</svg>
